<!DOCTYPE svg PUBLIC "-//W3C//DTD SVG 20010904//EN" "http://www.w3.org/TR/2001/REC-SVG-20010904/DTD/svg10.dtd">
<svg version="1.0" xmlns="http://www.w3.org/2000/svg" width="432px" height="146px" viewBox="0 0 4320 1460" preserveAspectRatio="xMidYMid meet">
<g id="layer1" fill="#000000" stroke="none">
 <path d="M3825 1350 c-4 -6 -5 -62 -4 -123 l4 -112 -50 0 -50 0 -10 110 -10 110 -175 0 -175 0 0 -110 0 -110 -45 0 -45 0 -10 115 -10 115 -165 0 -165 0 -5 -115 -5 -115 -53 -3 c-36 -2 -54 1 -57 10 -2 7 -8 60 -12 118 l-8 105 -165 0 -165 0 -8 -70 c-17 -156 -19 -160 -52 -160 l-30 0 -10 100 -10 100 -185 0 -185 0 -5 -100 -5 -100 -40 0 c-40 0 -40 0 -47 45 -4 25 -11 77 -15 115 l-8 70 -160 0 -160 0 -10 -112 c-5 -61 -13 -114 -16 -117 -3 -4 -24 -3 -45 2 l-39 8 -10 104 -10 105 -170 0 -170 0 0 -105 0 -105 -55 0 -55 0 -5 105 -5 105 -150 0 -150 0 -5 -110 -5 -110 -75 0 -75 0 -5 110 -5 110 -170 0 -170 0 3 -510 3 -510 82 -77 c45 -43 87 -77 94 -75 7 1 53 38 103 81 84 73 90 82 90 117 0 62 15 91 47 87 31 -3 40 -26 42 -109 1 -45 4 -49 76 -114 45 -40 81 -65 90 -62 7 3 52 34 98 67 l84 62 6 70 c3 39 10 75 15 80 5 5 31 8 58 6 l49 -3 8 -74 c8 -75 8 -75 79 -153 38 -43 75 -78 80 -78 6 0 46 32 89 71 l78 70 3 82 3 82 60 0 60 0 5 -73 5 -73 75 -59 c41 -33 80 -60 86 -60 22 0 174 123 178 144 2 11 8 44 13 71 7 44 11 50 35 53 32 4 43 -13 52 -79 5 -31 16 -54 34 -72 33 -32 183 -137 195 -137 5 0 41 28 79 62 69 61 70 62 63 102 -3 23 -9 60 -12 84 l-6 42 45 0 c54 0 68 -13 69 -65 1 -97 9 -112 99 -190 47 -41 90 -75 95 -75 6 0 48 36 95 79 l84 78 -17 78 c-9 44 -13 83 -8 88 4 4 30 7 57 5 l49 -3 18 -105 18 -105 67 -67 c36 -38 70 -68 75 -68 5 0 50 37 99 82 l90 82 -3 85 -4 85 35 8 c57 12 60 7 60 -85 l0 -84 75 -64 c42 -35 80 -66 85 -67 17 -6 190 128 190 147 0 9 -7 45 -15 80 -9 37 -12 68 -7 73 5 5 36 8 68 6 l59 -3 6 -40 c4 -22 10 -61 13 -86 6 -43 13 -52 87 -115 44 -38 86 -70 92 -72 7 -1 54 39 105 91 l92 93 -2 519 -3 520 -182 3 c-123 2 -184 -1 -188 -8z"/>
 </g>

</svg>